<?xml version="1.0" encoding="UTF-8" standalone="no"?>
<!DOCTYPE svg PUBLIC "-//W3C//DTD SVG 1.1//EN"
 "http://www.w3.org/Graphics/SVG/1.1/DTD/svg11.dtd">
<!-- Generated by graphviz version 2.38.0 (20140413.2041)
 -->
<!-- Title: G Pages: 1 -->
<svg width="517pt" height="782pt"
 viewBox="0.00 0.00 516.77 782.00" xmlns="http://www.w3.org/2000/svg" xmlns:xlink="http://www.w3.org/1999/xlink">
<g id="graph0" class="graph" transform="scale(1 1) rotate(0) translate(4 778)">
<title>G</title>
<polygon fill="white" stroke="none" points="-4,4 -4,-778 512.773,-778 512.773,4 -4,4"/>
<g id="clust1" class="cluster"><title>cluster_Global</title>
<path fill="none" stroke="gray" d="M366.773,-8C366.773,-8 488.773,-8 488.773,-8 494.773,-8 500.773,-14 500.773,-20 500.773,-20 500.773,-754 500.773,-754 500.773,-760 494.773,-766 488.773,-766 488.773,-766 366.773,-766 366.773,-766 360.773,-766 354.773,-760 354.773,-754 354.773,-754 354.773,-20 354.773,-20 354.773,-14 360.773,-8 366.773,-8"/>
<text text-anchor="middle" x="427.773" y="-753.2" font-family="Times,serif" font-size="11.00" fill="gray">Global</text>
</g>
<g id="clust2" class="cluster"><title>cluster_\CJ</title>
<path fill="none" stroke="gray" d="M374.773,-16C374.773,-16 480.773,-16 480.773,-16 486.773,-16 492.773,-22 492.773,-28 492.773,-28 492.773,-726 492.773,-726 492.773,-732 486.773,-738 480.773,-738 480.773,-738 374.773,-738 374.773,-738 368.773,-738 362.773,-732 362.773,-726 362.773,-726 362.773,-28 362.773,-28 362.773,-22 368.773,-16 374.773,-16"/>
<text text-anchor="middle" x="427.773" y="-725.2" font-family="Times,serif" font-size="11.00" fill="gray">CJ</text>
</g>
<g id="clust3" class="cluster"><title>cluster_\CJ\App</title>
<path fill="none" stroke="gray" d="M404.773,-638C404.773,-638 450.773,-638 450.773,-638 456.773,-638 462.773,-644 462.773,-650 462.773,-650 462.773,-698 462.773,-698 462.773,-704 456.773,-710 450.773,-710 450.773,-710 404.773,-710 404.773,-710 398.773,-710 392.773,-704 392.773,-698 392.773,-698 392.773,-650 392.773,-650 392.773,-644 398.773,-638 404.773,-638"/>
<text text-anchor="middle" x="427.773" y="-697.2" font-family="Times,serif" font-size="11.00" fill="gray">App</text>
</g>
<g id="clust4" class="cluster"><title>cluster_\CJ\Calender</title>
<path fill="none" stroke="gray" d="M382.773,-504C382.773,-504 472.773,-504 472.773,-504 478.773,-504 484.773,-510 484.773,-516 484.773,-516 484.773,-618 484.773,-618 484.773,-624 478.773,-630 472.773,-630 472.773,-630 382.773,-630 382.773,-630 376.773,-630 370.773,-624 370.773,-618 370.773,-618 370.773,-516 370.773,-516 370.773,-510 376.773,-504 382.773,-504"/>
<text text-anchor="middle" x="427.773" y="-617.2" font-family="Times,serif" font-size="11.00" fill="gray">Calender</text>
</g>
<g id="clust5" class="cluster"><title>cluster_\CJ\Cookie</title>
<path fill="none" stroke="gray" d="M403.273,-424C403.273,-424 452.273,-424 452.273,-424 458.273,-424 464.273,-430 464.273,-436 464.273,-436 464.273,-484 464.273,-484 464.273,-490 458.273,-496 452.273,-496 452.273,-496 403.273,-496 403.273,-496 397.273,-496 391.273,-490 391.273,-484 391.273,-484 391.273,-436 391.273,-436 391.273,-430 397.273,-424 403.273,-424"/>
<text text-anchor="middle" x="427.773" y="-483.2" font-family="Times,serif" font-size="11.00" fill="gray">Cookie</text>
</g>
<g id="clust6" class="cluster"><title>cluster_\CJ\Database</title>
<path fill="none" stroke="gray" d="M396.273,-344C396.273,-344 459.273,-344 459.273,-344 465.273,-344 471.273,-350 471.273,-356 471.273,-356 471.273,-404 471.273,-404 471.273,-410 465.273,-416 459.273,-416 459.273,-416 396.273,-416 396.273,-416 390.273,-416 384.273,-410 384.273,-404 384.273,-404 384.273,-356 384.273,-356 384.273,-350 390.273,-344 396.273,-344"/>
<text text-anchor="middle" x="427.773" y="-403.2" font-family="Times,serif" font-size="11.00" fill="gray">Database</text>
</g>
<g id="clust7" class="cluster"><title>cluster_\CJ\Navbar</title>
<path fill="none" stroke="gray" d="M403.273,-264C403.273,-264 452.273,-264 452.273,-264 458.273,-264 464.273,-270 464.273,-276 464.273,-276 464.273,-324 464.273,-324 464.273,-330 458.273,-336 452.273,-336 452.273,-336 403.273,-336 403.273,-336 397.273,-336 391.273,-330 391.273,-324 391.273,-324 391.273,-276 391.273,-276 391.273,-270 397.273,-264 403.273,-264"/>
<text text-anchor="middle" x="427.773" y="-323.2" font-family="Times,serif" font-size="11.00" fill="gray">Navbar</text>
</g>
<g id="clust8" class="cluster"><title>cluster_\CJ\Session</title>
<path fill="none" stroke="gray" d="M399.773,-184C399.773,-184 455.773,-184 455.773,-184 461.773,-184 467.773,-190 467.773,-196 467.773,-196 467.773,-244 467.773,-244 467.773,-250 461.773,-256 455.773,-256 455.773,-256 399.773,-256 399.773,-256 393.773,-256 387.773,-250 387.773,-244 387.773,-244 387.773,-196 387.773,-196 387.773,-190 393.773,-184 399.773,-184"/>
<text text-anchor="middle" x="427.773" y="-243.2" font-family="Times,serif" font-size="11.00" fill="gray">Session</text>
</g>
<g id="clust9" class="cluster"><title>cluster_\CJ\Shop</title>
<path fill="none" stroke="gray" d="M404.773,-104C404.773,-104 450.773,-104 450.773,-104 456.773,-104 462.773,-110 462.773,-116 462.773,-116 462.773,-164 462.773,-164 462.773,-170 456.773,-176 450.773,-176 450.773,-176 404.773,-176 404.773,-176 398.773,-176 392.773,-170 392.773,-164 392.773,-164 392.773,-116 392.773,-116 392.773,-110 398.773,-104 404.773,-104"/>
<text text-anchor="middle" x="427.773" y="-163.2" font-family="Times,serif" font-size="11.00" fill="gray">Shop</text>
</g>
<g id="clust10" class="cluster"><title>cluster_\CJ\Textformat</title>
<path fill="none" stroke="gray" d="M389.773,-24C389.773,-24 465.773,-24 465.773,-24 471.773,-24 477.773,-30 477.773,-36 477.773,-36 477.773,-84 477.773,-84 477.773,-90 471.773,-96 465.773,-96 465.773,-96 389.773,-96 389.773,-96 383.773,-96 377.773,-90 377.773,-84 377.773,-84 377.773,-36 377.773,-36 377.773,-30 383.773,-24 389.773,-24"/>
<text text-anchor="middle" x="427.773" y="-83.2" font-family="Times,serif" font-size="11.00" fill="gray">Textformat</text>
</g>
<!-- \\CJ\\App\\App -->
<g id="node1" class="node"><title>\\CJ\\App\\App</title>
<polygon fill="none" stroke="black" points="454.773,-682 400.773,-682 400.773,-646 454.773,-646 454.773,-682"/>
<text text-anchor="middle" x="427.773" y="-661.2" font-family="Courier,monospace" font-size="11.00">App</text>
</g>
<!-- \\CJ\\Calender\\Calender -->
<g id="node2" class="node"><title>\\CJ\\Calender\\Calender</title>
<polygon fill="none" stroke="black" points="463.273,-602 392.273,-602 392.273,-566 463.273,-566 463.273,-602"/>
<text text-anchor="middle" x="427.773" y="-581.2" font-family="Courier,monospace" font-size="11.00">Calender</text>
</g>
<!-- \\CJ\\Calender\\CalenderTest -->
<g id="node3" class="node"><title>\\CJ\\Calender\\CalenderTest</title>
<polygon fill="none" stroke="black" points="476.773,-548 378.773,-548 378.773,-512 476.773,-512 476.773,-548"/>
<text text-anchor="middle" x="427.773" y="-527.2" font-family="Courier,monospace" font-size="11.00">CalenderTest</text>
</g>
<!-- \\PHPUnit_Framework_TestCase -->
<g id="node10" class="node"><title>\\PHPUnit_Framework_TestCase</title>
<ellipse fill="none" stroke="black" cx="153.386" cy="-530" rx="129.977" ry="18"/>
<text text-anchor="middle" x="153.386" y="-526.3" font-family="Times,serif" font-size="14.00" fill="gray">\PHPUnit_Framework_TestCase</text>
</g>
<!-- \\CJ\\Calender\\CalenderTest&#45;&gt;\\PHPUnit_Framework_TestCase -->
<g id="edge1" class="edge"><title>\\CJ\\Calender\\CalenderTest&#45;&gt;\\PHPUnit_Framework_TestCase</title>
<path fill="none" stroke="black" d="M378.703,-530C354.758,-530 324.445,-530 293.909,-530"/>
<polygon fill="none" stroke="black" points="293.554,-526.5 283.554,-530 293.554,-533.5 293.554,-526.5"/>
</g>
<!-- \\CJ\\Cookie\\Cookie -->
<g id="node4" class="node"><title>\\CJ\\Cookie\\Cookie</title>
<polygon fill="none" stroke="black" points="456.273,-468 399.273,-468 399.273,-432 456.273,-432 456.273,-468"/>
<text text-anchor="middle" x="427.773" y="-447.2" font-family="Courier,monospace" font-size="11.00">Cookie</text>
</g>
<!-- \\CJ\\Database\\Database -->
<g id="node5" class="node"><title>\\CJ\\Database\\Database</title>
<polygon fill="none" stroke="black" points="463.273,-388 392.273,-388 392.273,-352 463.273,-352 463.273,-388"/>
<text text-anchor="middle" x="427.773" y="-367.2" font-family="Courier,monospace" font-size="11.00">Database</text>
</g>
<!-- \\Anax\\Common\\ConfigureInterface -->
<g id="node11" class="node"><title>\\Anax\\Common\\ConfigureInterface</title>
<ellipse fill="none" stroke="black" cx="153.386" cy="-330" rx="139.175" ry="18"/>
<text text-anchor="middle" x="153.386" y="-326.3" font-family="Times,serif" font-size="14.00" fill="gray">\Anax\Common\ConfigureInterface</text>
</g>
<!-- \\CJ\\Database\\Database&#45;&gt;\\Anax\\Common\\ConfigureInterface -->
<g id="edge2" class="edge"><title>\\CJ\\Database\\Database&#45;&gt;\\Anax\\Common\\ConfigureInterface</title>
<path fill="none" stroke="black" stroke-dasharray="1,5" d="M391.998,-364.893C357.787,-359.869 303.88,-351.953 256.054,-344.93"/>
<polygon fill="none" stroke="black" points="256.352,-341.436 245.95,-343.446 255.335,-348.362 256.352,-341.436"/>
</g>
<!-- \\Anax\\Common\\AppInjectableInterface -->
<g id="node12" class="node"><title>\\Anax\\Common\\AppInjectableInterface</title>
<ellipse fill="none" stroke="black" cx="153.386" cy="-203" rx="153.273" ry="18"/>
<text text-anchor="middle" x="153.386" y="-199.3" font-family="Times,serif" font-size="14.00" fill="gray">\Anax\Common\AppInjectableInterface</text>
</g>
<!-- \\CJ\\Database\\Database&#45;&gt;\\Anax\\Common\\AppInjectableInterface -->
<g id="edge3" class="edge"><title>\\CJ\\Database\\Database&#45;&gt;\\Anax\\Common\\AppInjectableInterface</title>
<path fill="none" stroke="black" stroke-dasharray="1,5" d="M392.197,-357.727C380.034,-352.86 366.486,-346.796 354.773,-340 331.475,-326.482 328.715,-318.623 306.773,-303 268.296,-275.605 222.881,-246.159 191.701,-226.368"/>
<polygon fill="none" stroke="black" points="193.225,-223.191 182.903,-220.8 189.482,-229.106 193.225,-223.191"/>
</g>
<!-- \\CJ\\Navbar\\Navbar -->
<g id="node6" class="node"><title>\\CJ\\Navbar\\Navbar</title>
<polygon fill="none" stroke="black" points="456.273,-308 399.273,-308 399.273,-272 456.273,-272 456.273,-308"/>
<text text-anchor="middle" x="427.773" y="-287.2" font-family="Courier,monospace" font-size="11.00">Navbar</text>
</g>
<!-- \\CJ\\Navbar\\Navbar&#45;&gt;\\Anax\\Common\\ConfigureInterface -->
<g id="edge4" class="edge"><title>\\CJ\\Navbar\\Navbar&#45;&gt;\\Anax\\Common\\ConfigureInterface</title>
<path fill="none" stroke="black" stroke-dasharray="1,5" d="M399.156,-294.056C365.745,-298.962 307.594,-307.501 256.355,-315.026"/>
<polygon fill="none" stroke="black" points="255.594,-311.6 246.209,-316.516 256.611,-318.526 255.594,-311.6"/>
</g>
<!-- \\CJ\\Navbar\\Navbar&#45;&gt;\\Anax\\Common\\AppInjectableInterface -->
<g id="edge5" class="edge"><title>\\CJ\\Navbar\\Navbar&#45;&gt;\\Anax\\Common\\AppInjectableInterface</title>
<path fill="none" stroke="black" stroke-dasharray="1,5" d="M399.156,-281.179C356.708,-267.621 274.33,-241.31 216.923,-222.974"/>
<polygon fill="none" stroke="black" points="217.814,-219.585 207.223,-219.876 215.684,-226.253 217.814,-219.585"/>
</g>
<!-- \\CJ\\Session\\Session -->
<g id="node7" class="node"><title>\\CJ\\Session\\Session</title>
<polygon fill="none" stroke="black" points="459.773,-228 395.773,-228 395.773,-192 459.773,-192 459.773,-228"/>
<text text-anchor="middle" x="427.773" y="-207.2" font-family="Courier,monospace" font-size="11.00">Session</text>
</g>
<!-- \\CJ\\Shop\\Shop -->
<g id="node8" class="node"><title>\\CJ\\Shop\\Shop</title>
<polygon fill="none" stroke="black" points="454.773,-148 400.773,-148 400.773,-112 454.773,-112 454.773,-148"/>
<text text-anchor="middle" x="427.773" y="-127.2" font-family="Courier,monospace" font-size="11.00">Shop</text>
</g>
<!-- \\CJ\\Shop\\Shop&#45;&gt;\\Anax\\Common\\AppInjectableInterface -->
<g id="edge6" class="edge"><title>\\CJ\\Shop\\Shop&#45;&gt;\\Anax\\Common\\AppInjectableInterface</title>
<path fill="none" stroke="black" stroke-dasharray="1,5" d="M400.655,-137C360.753,-147.693 283.198,-168.478 225.735,-183.879"/>
<polygon fill="none" stroke="black" points="224.727,-180.525 215.974,-186.494 226.54,-187.286 224.727,-180.525"/>
</g>
<!-- \\CJ\\Textformat\\Textformat -->
<g id="node9" class="node"><title>\\CJ\\Textformat\\Textformat</title>
<polygon fill="none" stroke="black" points="469.773,-68 385.773,-68 385.773,-32 469.773,-32 469.773,-68"/>
<text text-anchor="middle" x="427.773" y="-47.2" font-family="Courier,monospace" font-size="11.00">Textformat</text>
</g>
<!-- \\CJ\\Textformat\\Textformat&#45;&gt;\\Anax\\Common\\AppInjectableInterface -->
<g id="edge7" class="edge"><title>\\CJ\\Textformat\\Textformat&#45;&gt;\\Anax\\Common\\AppInjectableInterface</title>
<path fill="none" stroke="black" stroke-dasharray="1,5" d="M394.726,-68.001C345.006,-95.9286 249.353,-149.657 194.91,-180.238"/>
<polygon fill="none" stroke="black" points="192.896,-177.355 185.891,-185.304 196.324,-183.458 192.896,-177.355"/>
</g>
</g>
</svg>
